<svg width="29" height="29" viewBox="0 0 29 29" fill="none" xmlns="http://www.w3.org/2000/svg">
<path d="M6.04169 8.45833H22.7046C23.0422 8.45834 23.3761 8.5291 23.6847 8.66605C23.9933 8.80299 24.2698 9.00309 24.4964 9.25343C24.7229 9.50377 24.8945 9.79881 25.0001 10.1195C25.1056 10.4402 25.1428 10.7795 25.1092 11.1155L24.3842 18.3655C24.3246 18.9618 24.0455 19.5147 23.6011 19.9168C23.1568 20.3189 22.5789 20.5416 21.9796 20.5417H10.44C9.88113 20.5419 9.33944 20.3484 8.90718 19.9941C8.47492 19.6398 8.17881 19.1467 8.06927 18.5987L6.04169 8.45833Z" stroke="#333333" stroke-width="2" stroke-linejoin="round"/>
<path d="M19.3334 25.375H21.75M6.04169 8.45833L5.06294 4.53971C4.99748 4.27841 4.84659 4.04648 4.63423 3.88075C4.42187 3.71502 4.16023 3.62501 3.89085 3.625H2.41669L6.04169 8.45833ZM9.66669 25.375H12.0834H9.66669Z" stroke="#333333" stroke-width="2" stroke-linecap="round" stroke-linejoin="round"/>
</svg>
