<svg width="26" height="26" viewBox="0 0 26 26" fill="none" xmlns="http://www.w3.org/2000/svg">
<path d="M15.9099 8.48527L12.728 11.6672L9.54598 8.48527C9.40532 8.34461 9.21456 8.2656 9.01565 8.2656C8.81673 8.2656 8.62597 8.34461 8.48532 8.48527C8.34466 8.62592 8.26565 8.81668 8.26565 9.0156C8.26565 9.21451 8.34466 9.40527 8.48532 9.54593L11.6673 12.7279L8.48532 15.9099C8.34466 16.0505 8.26565 16.2413 8.26565 16.4402C8.26565 16.6391 8.34466 16.8299 8.48532 16.9705C8.62597 17.1112 8.81673 17.1902 9.01565 17.1902C9.21456 17.1902 9.40532 17.1112 9.54598 16.9705L12.728 13.7886L15.9099 16.9705C16.0506 17.1112 16.2414 17.1902 16.4403 17.1902C16.6392 17.1902 16.8299 17.1112 16.9706 16.9705C17.1112 16.8299 17.1903 16.6391 17.1903 16.4402C17.1903 16.2413 17.1112 16.0505 16.9706 15.9099L13.7886 12.7279L16.9706 9.54593C17.1112 9.40527 17.1903 9.21451 17.1903 9.0156C17.1903 8.81668 17.1112 8.62592 16.9706 8.48527C16.8299 8.34461 16.6392 8.2656 16.4403 8.2656C16.2414 8.2656 16.0506 8.34461 15.9099 8.48527Z" fill="#FF5757"/>
</svg>
