<svg width="146" height="41" viewBox="0 0 146 41" fill="none" xmlns="http://www.w3.org/2000/svg">
<rect width="41" height="41" rx="8" fill="white"/>
<path d="M20.1839 18.7273H16.9794C16.9567 18.4621 16.8961 18.2216 16.7976 18.0057C16.7029 17.7898 16.5703 17.6042 16.3999 17.4489C16.2332 17.2898 16.0305 17.1686 15.7919 17.0852C15.5533 16.9981 15.2824 16.9545 14.9794 16.9545C14.4491 16.9545 14.0002 17.0833 13.6328 17.3409C13.2692 17.5985 12.9927 17.9678 12.8033 18.4489C12.6177 18.9299 12.5249 19.5076 12.5249 20.1818C12.5249 20.8939 12.6196 21.4905 12.8089 21.9716C13.0021 22.4489 13.2805 22.8087 13.6442 23.0511C14.0078 23.2898 14.4453 23.4091 14.9567 23.4091C15.2483 23.4091 15.5097 23.3731 15.7408 23.3011C15.9718 23.2254 16.1726 23.1174 16.343 22.9773C16.5135 22.8371 16.6518 22.6686 16.7578 22.4716C16.8677 22.2708 16.9415 22.0455 16.9794 21.7955L20.1839 21.8182C20.1461 22.3106 20.0078 22.8125 19.7692 23.3239C19.5305 23.8314 19.1915 24.3011 18.7521 24.733C18.3165 25.161 17.7768 25.5057 17.1328 25.767C16.4889 26.0284 15.7408 26.1591 14.8885 26.1591C13.8203 26.1591 12.862 25.9299 12.0135 25.4716C11.1688 25.0133 10.5002 24.339 10.0078 23.4489C9.51918 22.5587 9.27486 21.4697 9.27486 20.1818C9.27486 18.8864 9.52486 17.7955 10.0249 16.9091C10.5249 16.0189 11.1991 15.3466 12.0476 14.892C12.8961 14.4337 13.843 14.2045 14.8885 14.2045C15.6233 14.2045 16.2995 14.3049 16.9169 14.5057C17.5343 14.7064 18.076 15 18.5419 15.3864C19.0078 15.7689 19.3828 16.2405 19.6669 16.8011C19.951 17.3617 20.1233 18.0038 20.1839 18.7273ZM31.6854 14.3636V26H29.049L24.8445 19.8864H24.7763V26H21.6172V14.3636H24.299L28.4354 20.4545H28.5263V14.3636H31.6854Z" fill="#343434"/>
<path d="M59.304 5.72443H55.7528C55.7055 5.35985 55.6084 5.03078 55.4616 4.73722C55.3149 4.44366 55.1207 4.19271 54.8793 3.98438C54.6378 3.77604 54.3513 3.61742 54.0199 3.50852C53.6932 3.39489 53.331 3.33807 52.9332 3.33807C52.2277 3.33807 51.6193 3.51089 51.108 3.85653C50.6013 4.20218 50.2107 4.7017 49.9361 5.35511C49.6662 6.00852 49.5312 6.79924 49.5312 7.72727C49.5312 8.69318 49.6686 9.50284 49.9432 10.1562C50.2225 10.8049 50.6132 11.295 51.1151 11.6264C51.6217 11.9531 52.2206 12.1165 52.9119 12.1165C53.3002 12.1165 53.6529 12.0668 53.9702 11.9673C54.2921 11.8679 54.5739 11.7235 54.8153 11.5341C55.0616 11.34 55.2628 11.1056 55.419 10.831C55.58 10.5516 55.6913 10.2367 55.7528 9.88636L59.304 9.90767C59.2424 10.5516 59.0554 11.1861 58.7429 11.8111C58.4351 12.4361 58.0114 13.0066 57.4716 13.5227C56.9318 14.0341 56.2737 14.4413 55.4972 14.7443C54.7254 15.0473 53.84 15.1989 52.8409 15.1989C51.5246 15.1989 50.3456 14.91 49.304 14.3324C48.267 13.75 47.4479 12.9025 46.8466 11.7898C46.2453 10.6771 45.9446 9.32292 45.9446 7.72727C45.9446 6.12689 46.25 4.77036 46.8608 3.65767C47.4716 2.54498 48.2978 1.69981 49.3395 1.12216C50.3812 0.544507 51.5483 0.255681 52.8409 0.255681C53.7216 0.255681 54.536 0.378788 55.2841 0.625C56.0322 0.866477 56.6903 1.22159 57.2585 1.69034C57.8267 2.15436 58.2884 2.72491 58.6435 3.40199C58.9986 4.07907 59.2188 4.85322 59.304 5.72443ZM66.408 15.206C65.2622 15.206 64.2773 14.9716 63.4535 14.5028C62.6344 14.0294 62.0022 13.3712 61.5572 12.5284C61.1168 11.6809 60.8967 10.6984 60.8967 9.58097C60.8967 8.45881 61.1168 7.47633 61.5572 6.63352C62.0022 5.78598 62.6344 5.12784 63.4535 4.65909C64.2773 4.18561 65.2622 3.94886 66.408 3.94886C67.5539 3.94886 68.5363 4.18561 69.3555 4.65909C70.1793 5.12784 70.8114 5.78598 71.2518 6.63352C71.6969 7.47633 71.9194 8.45881 71.9194 9.58097C71.9194 10.6984 71.6969 11.6809 71.2518 12.5284C70.8114 13.3712 70.1793 14.0294 69.3555 14.5028C68.5363 14.9716 67.5539 15.206 66.408 15.206ZM66.4293 12.5852C66.846 12.5852 67.1987 12.4574 67.4876 12.2017C67.7764 11.946 67.9966 11.5909 68.1481 11.1364C68.3043 10.6818 68.3825 10.1562 68.3825 9.55966C68.3825 8.9536 68.3043 8.4233 68.1481 7.96875C67.9966 7.5142 67.7764 7.15909 67.4876 6.90341C67.1987 6.64773 66.846 6.51989 66.4293 6.51989C65.9985 6.51989 65.6339 6.64773 65.3356 6.90341C65.042 7.15909 64.8171 7.5142 64.6609 7.96875C64.5094 8.4233 64.4336 8.9536 64.4336 9.55966C64.4336 10.1562 64.5094 10.6818 64.6609 11.1364C64.8171 11.5909 65.042 11.946 65.3356 12.2017C65.6339 12.4574 65.9985 12.5852 66.4293 12.5852ZM73.6985 15V4.09091H77.0011V6.09375H77.1218C77.3491 5.43087 77.7326 4.90767 78.2724 4.52415C78.8121 4.14062 79.4561 3.94886 80.2042 3.94886C80.9618 3.94886 81.6104 4.14299 82.1502 4.53125C82.69 4.91951 83.0333 5.44034 83.18 6.09375H83.2937C83.4973 5.44508 83.895 4.92661 84.4869 4.53835C85.0787 4.14536 85.7771 3.94886 86.582 3.94886C87.6142 3.94886 88.4523 4.2803 89.0962 4.94318C89.7402 5.60133 90.0621 6.50568 90.0621 7.65625V15H86.5891V8.4517C86.5891 7.9072 86.4495 7.4929 86.1701 7.20881C85.8907 6.91998 85.5285 6.77557 85.0835 6.77557C84.6052 6.77557 84.2288 6.93182 83.9542 7.24432C83.6843 7.55208 83.5494 7.96638 83.5494 8.48722V15H80.2113V8.41619C80.2113 7.90956 80.074 7.50947 79.7994 7.21591C79.5247 6.92235 79.1625 6.77557 78.7127 6.77557C78.4097 6.77557 78.1422 6.84896 77.9102 6.99574C77.6781 7.13778 77.4959 7.34138 77.3633 7.60653C77.2354 7.87169 77.1715 8.18419 77.1715 8.54403V15H73.6985ZM92.2141 19.0909V4.09091H95.6516V5.95881H95.7582C95.9002 5.62737 96.1014 5.30777 96.3619 5C96.627 4.69223 96.9632 4.44129 97.3704 4.24716C97.7823 4.0483 98.2747 3.94886 98.8477 3.94886C99.6052 3.94886 100.313 4.14773 100.971 4.54545C101.634 4.94318 102.169 5.55634 102.576 6.38494C102.984 7.21354 103.187 8.26941 103.187 9.55256C103.187 10.7884 102.991 11.8229 102.598 12.6562C102.209 13.4896 101.684 14.1146 101.021 14.5312C100.363 14.9479 99.6313 15.1562 98.8263 15.1562C98.2771 15.1562 97.8013 15.0663 97.3988 14.8864C96.9963 14.7064 96.6578 14.4697 96.3832 14.1761C96.1133 13.8826 95.9049 13.5677 95.7582 13.2315H95.6871V19.0909H92.2141ZM95.6161 9.54545C95.6161 10.1326 95.6942 10.6439 95.8505 11.0795C96.0115 11.5152 96.2411 11.8537 96.5394 12.0952C96.8424 12.3319 97.2047 12.4503 97.6261 12.4503C98.0522 12.4503 98.4144 12.3319 98.7127 12.0952C99.011 11.8537 99.2359 11.5152 99.3874 11.0795C99.5437 10.6439 99.6218 10.1326 99.6218 9.54545C99.6218 8.95833 99.5437 8.44934 99.3874 8.01847C99.2359 7.58759 99.011 7.25379 98.7127 7.01705C98.4192 6.7803 98.0569 6.66193 97.6261 6.66193C97.1999 6.66193 96.8377 6.77794 96.5394 7.00994C96.2411 7.24195 96.0115 7.57339 95.8505 8.00426C95.6942 8.43513 95.6161 8.94886 95.6161 9.54545ZM108.082 15.1847C107.386 15.1847 106.768 15.0687 106.229 14.8366C105.694 14.5999 105.27 14.2448 104.957 13.7713C104.65 13.2931 104.496 12.6941 104.496 11.9744C104.496 11.3684 104.602 10.857 104.815 10.4403C105.028 10.0237 105.322 9.68513 105.696 9.42472C106.07 9.1643 106.501 8.9678 106.989 8.83523C107.476 8.69792 107.997 8.60559 108.551 8.55824C109.171 8.50142 109.671 8.44223 110.05 8.38068C110.429 8.31439 110.703 8.22206 110.874 8.10369C111.049 7.98059 111.136 7.80776 111.136 7.58523V7.54972C111.136 7.18513 111.011 6.90341 110.76 6.70455C110.509 6.50568 110.17 6.40625 109.744 6.40625C109.285 6.40625 108.916 6.50568 108.636 6.70455C108.357 6.90341 108.179 7.17803 108.104 7.52841L104.901 7.41477C104.995 6.75189 105.239 6.16004 105.632 5.6392C106.03 5.11364 106.574 4.7017 107.266 4.40341C107.962 4.10038 108.797 3.94886 109.773 3.94886C110.469 3.94886 111.11 4.03172 111.697 4.19744C112.285 4.35843 112.796 4.59517 113.232 4.90767C113.667 5.21544 114.003 5.59422 114.24 6.04403C114.482 6.49384 114.602 7.00758 114.602 7.58523V15H111.335V13.4801H111.25C111.056 13.8494 110.807 14.1619 110.504 14.4176C110.206 14.6733 109.853 14.8651 109.446 14.9929C109.044 15.1207 108.589 15.1847 108.082 15.1847ZM109.155 12.9119C109.529 12.9119 109.865 12.8362 110.163 12.6847C110.466 12.5331 110.708 12.3248 110.888 12.0597C111.068 11.7898 111.158 11.4773 111.158 11.1222V10.0852C111.058 10.1373 110.938 10.1847 110.795 10.2273C110.658 10.2699 110.507 10.3101 110.341 10.348C110.175 10.3859 110.005 10.419 109.83 10.4474C109.654 10.4759 109.486 10.5019 109.325 10.5256C108.999 10.5777 108.719 10.6581 108.487 10.767C108.26 10.8759 108.085 11.018 107.962 11.1932C107.843 11.3636 107.784 11.5672 107.784 11.804C107.784 12.1638 107.912 12.4384 108.168 12.6278C108.428 12.8172 108.757 12.9119 109.155 12.9119ZM120.199 8.77841V15H116.726V4.09091H120.028V6.09375H120.149C120.391 5.42614 120.803 4.90294 121.385 4.52415C121.967 4.14062 122.661 3.94886 123.466 3.94886C124.233 3.94886 124.898 4.12169 125.462 4.46733C126.03 4.80824 126.47 5.28646 126.783 5.90199C127.1 6.51278 127.256 7.22775 127.251 8.04688V15H123.778V8.72869C123.783 8.12263 123.629 7.64915 123.317 7.30824C123.009 6.96733 122.58 6.79688 122.031 6.79688C121.667 6.79688 121.345 6.87737 121.065 7.03835C120.791 7.1946 120.578 7.41951 120.426 7.71307C120.279 8.00663 120.204 8.36174 120.199 8.77841ZM131.135 19.0909C130.718 19.0909 130.325 19.0578 129.956 18.9915C129.586 18.9299 129.269 18.8471 129.004 18.7429L129.771 16.2216C130.112 16.3352 130.42 16.4015 130.694 16.4205C130.974 16.4394 131.213 16.3944 131.412 16.2855C131.615 16.1813 131.771 15.9943 131.88 15.7244L132.015 15.3977L128.137 4.09091H131.774L133.784 11.875H133.897L135.936 4.09091H139.593L135.481 16.044C135.282 16.6406 135.001 17.1662 134.636 17.6207C134.276 18.08 133.81 18.4399 133.237 18.7003C132.669 18.9607 131.968 19.0909 131.135 19.0909ZM58.4801 24.4545V39H55.4972L49.7088 30.6051H49.6165V39H46.1009V24.4545H49.1264L54.8509 32.8352H54.9716V24.4545H58.4801ZM63.766 39.1847C63.07 39.1847 62.4521 39.0687 61.9123 38.8366C61.3772 38.5999 60.9535 38.2448 60.641 37.7713C60.3332 37.2931 60.1793 36.6941 60.1793 35.9744C60.1793 35.3684 60.2859 34.857 60.4989 34.4403C60.712 34.0237 61.0056 33.6851 61.3796 33.4247C61.7537 33.1643 62.1845 32.9678 62.6722 32.8352C63.1599 32.6979 63.6808 32.6056 64.2347 32.5582C64.855 32.5014 65.3545 32.4422 65.7333 32.3807C66.1121 32.3144 66.3867 32.2221 66.5572 32.1037C66.7324 31.9806 66.82 31.8078 66.82 31.5852V31.5497C66.82 31.1851 66.6945 30.9034 66.4435 30.7045C66.1926 30.5057 65.854 30.4062 65.4279 30.4062C64.9686 30.4062 64.5993 30.5057 64.32 30.7045C64.0406 30.9034 63.863 31.178 63.7873 31.5284L60.5842 31.4148C60.6789 30.7519 60.9227 30.16 61.3157 29.6392C61.7134 29.1136 62.2579 28.7017 62.9492 28.4034C63.6452 28.1004 64.4809 27.9489 65.4563 27.9489C66.1523 27.9489 66.7939 28.0317 67.381 28.1974C67.9682 28.3584 68.4795 28.5952 68.9151 28.9077C69.3507 29.2154 69.6869 29.5942 69.9237 30.044C70.1651 30.4938 70.2859 31.0076 70.2859 31.5852V39H67.0188V37.4801H66.9336C66.7395 37.8494 66.4909 38.1619 66.1879 38.4176C65.8896 38.6733 65.5368 38.8651 65.1296 38.9929C64.7272 39.1207 64.2726 39.1847 63.766 39.1847ZM64.8384 36.9119C65.2125 36.9119 65.5487 36.8362 65.8469 36.6847C66.15 36.5331 66.3915 36.3248 66.5714 36.0597C66.7513 35.7898 66.8413 35.4773 66.8413 35.1222V34.0852C66.7418 34.1373 66.6211 34.1847 66.479 34.2273C66.3417 34.2699 66.1902 34.3101 66.0245 34.348C65.8588 34.3859 65.6883 34.419 65.5131 34.4474C65.3379 34.4759 65.1699 34.5019 65.0089 34.5256C64.6822 34.5777 64.4028 34.6581 64.1708 34.767C63.9435 34.8759 63.7683 35.018 63.6452 35.1932C63.5269 35.3636 63.4677 35.5672 63.4677 35.804C63.4677 36.1638 63.5955 36.4384 63.8512 36.6278C64.1116 36.8172 64.4407 36.9119 64.8384 36.9119ZM72.4094 39V28.0909H75.712V30.0938H75.8327C76.06 29.4309 76.4435 28.9077 76.9833 28.5241C77.5231 28.1406 78.167 27.9489 78.9151 27.9489C79.6727 27.9489 80.3214 28.143 80.8612 28.5312C81.4009 28.9195 81.7442 29.4403 81.891 30.0938H82.0046C82.2082 29.4451 82.6059 28.9266 83.1978 28.5384C83.7897 28.1454 84.488 27.9489 85.293 27.9489C86.3252 27.9489 87.1632 28.2803 87.8072 28.9432C88.4511 29.6013 88.7731 30.5057 88.7731 31.6562V39H85.3001V32.4517C85.3001 31.9072 85.1604 31.4929 84.881 31.2088C84.6017 30.92 84.2395 30.7756 83.7944 30.7756C83.3162 30.7756 82.9397 30.9318 82.6651 31.2443C82.3952 31.5521 82.2603 31.9664 82.2603 32.4872V39H78.9222V32.4162C78.9222 31.9096 78.7849 31.5095 78.5103 31.2159C78.2357 30.9223 77.8735 30.7756 77.4237 30.7756C77.1206 30.7756 76.8531 30.849 76.6211 30.9957C76.3891 31.1378 76.2068 31.3414 76.0742 31.6065C75.9464 31.8717 75.8825 32.1842 75.8825 32.544V39H72.4094ZM96.0245 39.206C94.8834 39.206 93.8986 38.9811 93.07 38.5312C92.2461 38.0767 91.6116 37.4304 91.1665 36.5923C90.7262 35.7495 90.506 34.7481 90.506 33.5881C90.506 32.4612 90.7286 31.4763 91.1737 30.6335C91.6187 29.786 92.2461 29.1278 93.0558 28.6591C93.8654 28.1856 94.8195 27.9489 95.918 27.9489C96.6945 27.9489 97.4047 28.0696 98.0487 28.3111C98.6926 28.5526 99.2489 28.91 99.7177 29.3835C100.186 29.857 100.551 30.4418 100.811 31.1378C101.072 31.8291 101.202 32.6222 101.202 33.517V34.3835H91.7205V32.3665H97.9705C97.9658 31.9972 97.8782 31.6681 97.7077 31.3793C97.5373 31.0904 97.3029 30.8655 97.0046 30.7045C96.7111 30.5388 96.3725 30.456 95.989 30.456C95.6007 30.456 95.2527 30.5436 94.945 30.7188C94.6372 30.8892 94.3933 31.1236 94.2134 31.4219C94.0335 31.7154 93.9388 32.0492 93.9293 32.4233V34.4759C93.9293 34.9209 94.0169 35.3116 94.1921 35.6477C94.3673 35.9792 94.6159 36.2372 94.9379 36.4219C95.2598 36.6065 95.6433 36.6989 96.0884 36.6989C96.3962 36.6989 96.6755 36.6562 96.9265 36.571C97.1774 36.4858 97.3929 36.3603 97.5728 36.1946C97.7527 36.0289 97.8877 35.8253 97.9776 35.5838L101.167 35.6761C101.034 36.3911 100.743 37.0137 100.293 37.544C99.8479 38.0696 99.2631 38.4792 98.5387 38.7727C97.8143 39.0616 96.9762 39.206 96.0245 39.206Z" fill="white"/>
</svg>
