<svg width="24" height="24" viewBox="0 0 24 24" fill="none" xmlns="http://www.w3.org/2000/svg">
<path d="M22.8 17.3998V6.5998C22.8 5.6038 21.996 4.7998 21 4.7998H4.188C3.192 4.7998 2.388 5.6038 2.388 6.5998V17.3998C2.388 18.3958 3.192 19.1998 4.188 19.1998H21C21.996 19.1998 22.8 18.3958 22.8 17.3998ZM21.228 6.4678C21.624 6.8638 21.408 7.2718 21.192 7.4758L16.32 11.9398L21 16.8118C21.144 16.9798 21.24 17.2438 21.072 17.4238C20.916 17.6158 20.556 17.6038 20.4 17.4838L15.156 13.0078L12.588 15.3478L10.032 13.0078L4.788 17.4838C4.632 17.6038 4.272 17.6158 4.116 17.4238C3.948 17.2438 4.044 16.9798 4.188 16.8118L8.868 11.9398L3.996 7.4758C3.78 7.2718 3.564 6.8638 3.96 6.4678C4.356 6.0718 4.764 6.2638 5.1 6.5518L12.588 12.5998L20.088 6.5518C20.424 6.2638 20.832 6.0718 21.228 6.4678Z" fill="#5B76FF"/>
</svg>
