<svg width="18" height="17" viewBox="0 0 18 17" fill="none" xmlns="http://www.w3.org/2000/svg">
<path d="M16.2669 7.52501H10.2075V1.67501C10.2075 1.41643 10.1011 1.16843 9.91176 0.985583C9.72236 0.802735 9.4655 0.700012 9.19766 0.700012C8.92982 0.700012 8.67295 0.802735 8.48356 0.985583C8.29416 1.16843 8.18777 1.41643 8.18777 1.67501V7.52501H2.12842C1.86058 7.52501 1.60371 7.62774 1.41432 7.81058C1.22493 7.99343 1.11853 8.24143 1.11853 8.50001C1.11853 8.7586 1.22493 9.00659 1.41432 9.18944C1.60371 9.37229 1.86058 9.47501 2.12842 9.47501H8.18777V15.325C8.18777 15.5836 8.29416 15.8316 8.48356 16.0144C8.67295 16.1973 8.92982 16.3 9.19766 16.3C9.4655 16.3 9.72236 16.1973 9.91176 16.0144C10.1011 15.8316 10.2075 15.5836 10.2075 15.325V9.47501H16.2669C16.5347 9.47501 16.7916 9.37229 16.981 9.18944C17.1704 9.00659 17.2768 8.7586 17.2768 8.50001C17.2768 8.24143 17.1704 7.99343 16.981 7.81058C16.7916 7.62774 16.5347 7.52501 16.2669 7.52501Z" fill="white"/>
</svg>
