<svg width="13" height="12" viewBox="0 0 13 12" fill="none" xmlns="http://www.w3.org/2000/svg">
<path d="M11.8929 5.25H7.13571V0.75C7.13571 0.551088 7.05218 0.360322 6.90349 0.21967C6.7548 0.0790178 6.55314 0 6.34286 0C6.13258 0 5.93091 0.0790178 5.78222 0.21967C5.63353 0.360322 5.55 0.551088 5.55 0.75V5.25H0.792857C0.582578 5.25 0.380912 5.32902 0.232223 5.46967C0.0835331 5.61032 0 5.80109 0 6C0 6.19891 0.0835331 6.38968 0.232223 6.53033C0.380912 6.67098 0.582578 6.75 0.792857 6.75H5.55V11.25C5.55 11.4489 5.63353 11.6397 5.78222 11.7803C5.93091 11.921 6.13258 12 6.34286 12C6.55314 12 6.7548 11.921 6.90349 11.7803C7.05218 11.6397 7.13571 11.4489 7.13571 11.25V6.75H11.8929C12.1031 6.75 12.3048 6.67098 12.4535 6.53033C12.6022 6.38968 12.6857 6.19891 12.6857 6C12.6857 5.80109 12.6022 5.61032 12.4535 5.46967C12.3048 5.32902 12.1031 5.25 11.8929 5.25Z" fill="#343434"/>
</svg>
