<svg width="35" height="34" viewBox="0 0 35 34" fill="none" xmlns="http://www.w3.org/2000/svg">
<g clip-path="url(#clip0_12_1409)">
<path d="M31.4615 16.9705L16.0157 16.9705M13.0717 8.38773L31.3478 16.6281C31.414 16.6576 31.4701 16.7056 31.5095 16.7664C31.5489 16.8272 31.5699 16.898 31.5699 16.9705C31.5699 17.0429 31.5489 17.1137 31.5095 17.1745C31.4701 17.2353 31.414 17.2833 31.3478 17.3129L13.0717 25.5532C13.0013 25.5836 12.9234 25.5917 12.8484 25.5765C12.7733 25.5613 12.7047 25.5234 12.6518 25.4681C12.5988 25.4127 12.5641 25.3424 12.5523 25.2668C12.5405 25.1911 12.5522 25.1136 12.5857 25.0447L15.8569 17.3056C15.9089 17.2015 15.9359 17.0868 15.9359 16.9705C15.9359 16.8541 15.9089 16.7394 15.8569 16.6354L12.5838 8.89817C12.5491 8.82905 12.5367 8.75093 12.5482 8.67449C12.5597 8.59806 12.5946 8.52704 12.648 8.47117C12.7014 8.41529 12.7708 8.37728 12.8466 8.36235C12.9224 8.34741 13.001 8.35627 13.0717 8.38773V8.38773Z" stroke="white" stroke-width="1.5" stroke-linecap="round" stroke-linejoin="round"/>
</g>
<defs>
<clipPath id="clip0_12_1409">
<rect width="24" height="24" fill="white" transform="translate(17.9381) rotate(45)"/>
</clipPath>
</defs>
</svg>
