<svg width="25" height="24" viewBox="0 0 25 24" fill="none" xmlns="http://www.w3.org/2000/svg">
<path d="M23.8605 22.7119L16.5731 15.3799C17.9314 13.7531 18.75 11.6602 18.75 9.375C18.75 4.19737 14.5526 0 9.375 0C4.19737 0 0 4.19737 0 9.375C0 14.5526 4.19737 18.75 9.375 18.75C11.7274 18.75 13.8761 17.8815 15.5224 16.4497L22.7996 23.7727C23.0925 24.0656 23.5676 24.0656 23.8605 23.7727C24.153 23.4799 24.153 23.0051 23.8605 22.7119ZM9.375 17.2624C5.019 17.2624 1.48763 13.731 1.48763 9.375C1.48763 5.019 5.019 1.48763 9.375 1.48763C13.731 1.48763 17.2624 5.019 17.2624 9.375C17.2624 13.731 13.731 17.2624 9.375 17.2624Z" fill="#5B76FF"/>
</svg>
