<svg width="187" height="187" viewBox="0 0 187 187" fill="none" xmlns="http://www.w3.org/2000/svg">
<path d="M158.872 66.6967L149.21 81.1892C153.832 90.4073 156.095 100.628 155.796 110.936C155.497 121.243 152.645 131.315 147.496 140.25H39.5038C32.8121 128.641 30.0392 115.185 31.5964 101.877C33.1535 88.568 38.9577 76.1154 48.1485 66.365C57.3393 56.6145 69.4274 50.0852 82.6209 47.745C95.8143 45.4048 109.411 47.3783 121.394 53.3729L135.887 43.7113C120.534 33.7607 102.168 29.5301 84.0092 31.761C65.85 33.9918 49.0549 42.5417 36.5668 55.9126C24.0786 69.2834 16.6939 86.6224 15.7066 104.892C14.7193 123.161 20.1923 141.194 31.1667 155.833H155.833C165.39 143.065 170.799 127.671 171.328 111.731C171.858 95.7902 167.483 80.0713 158.794 66.6967H158.872Z" fill="#5B76FF"/>
<path d="M82.5137 120.07C83.961 121.519 85.6797 122.668 87.5715 123.452C89.4633 124.236 91.4911 124.64 93.539 124.64C95.5868 124.64 97.6147 124.236 99.5064 123.452C101.398 122.668 103.117 121.519 104.564 120.07L148.665 53.9185L82.5137 98.0193C81.0649 99.4666 79.9155 101.185 79.1312 103.077C78.347 104.969 77.9434 106.997 77.9434 109.044C77.9434 111.092 78.347 113.12 79.1312 115.012C79.9155 116.904 81.0649 118.622 82.5137 120.07Z" fill="#5B76FF"/>
</svg>
