<svg width="187" height="187" viewBox="0 0 187 187" fill="none" xmlns="http://www.w3.org/2000/svg">
<path d="M155.833 126.583C155.833 124.281 155.38 122.002 154.499 119.876C153.618 117.749 152.326 115.817 150.698 114.19C149.07 112.562 147.137 111.272 145.01 110.392C142.883 109.511 140.604 109.059 138.302 109.06H48.6979C46.3954 109.059 44.1153 109.512 41.9878 110.392C39.8604 111.273 37.9273 112.564 36.2992 114.192C34.6711 115.821 33.3798 117.754 32.4991 119.881C31.6184 122.008 31.1657 124.289 31.1667 126.591V131.087C31.1667 138.045 33.6522 144.769 38.1636 150.06C50.3731 164.35 68.9641 171.409 93.4689 171.409C117.981 171.409 136.58 164.357 148.805 150.067C153.34 144.774 155.832 138.034 155.833 131.064V126.583ZM48.6901 120.747H138.302C141.52 120.747 144.13 123.358 144.13 126.591V131.071C144.132 135.251 142.639 139.294 139.923 142.471C130.129 153.909 114.802 159.714 93.4611 159.714C72.1275 159.714 56.8091 153.909 47.0461 142.471C44.3358 139.297 42.8467 135.26 42.8464 131.087V126.583C42.8485 125.036 43.464 123.553 44.558 122.459C45.652 121.365 47.1352 120.749 48.6824 120.747H48.6901ZM132.435 54.5572C132.436 46.3522 129.846 38.3564 125.036 31.7098C120.225 25.0632 113.438 20.1052 105.644 17.5427C97.8491 14.9802 89.4445 14.9441 81.6282 17.4394C73.8119 19.9348 66.983 24.8343 62.1152 31.4393C61.5506 31.2605 60.9621 31.1686 60.3699 31.1666H40.9063C39.3564 31.1666 37.87 31.7823 36.7741 32.8782C35.6782 33.9741 35.0625 35.4605 35.0625 37.0104V79.8489C35.0605 82.6641 35.6132 85.4521 36.6891 88.0535C37.765 90.655 39.343 93.0189 41.3329 95.0103C43.3228 97.0016 45.6855 98.5813 48.2862 99.6591C50.8869 100.737 53.6744 101.292 56.4896 101.292H58.4375V101.26H58.5154C59.8355 101.262 61.1344 100.928 62.2897 100.29C63.445 99.6511 64.4187 98.7288 65.1191 97.6098C65.8194 96.4907 66.2233 95.2119 66.2928 93.8936C66.3623 92.5753 66.095 91.2611 65.5162 90.0746C64.9373 88.8882 64.0659 87.8687 62.9842 87.1121C61.9024 86.3555 60.6458 85.8868 59.3328 85.7501C58.0198 85.6134 56.6936 85.8132 55.4792 86.3307C54.2647 86.8482 53.202 87.6664 52.3912 88.7081C50.7039 87.9254 49.2759 86.6759 48.2763 85.1073C47.2766 83.5388 46.747 81.7168 46.75 79.8567V77.9166H52.5782C55.539 77.9166 58.2895 76.966 60.5257 75.361C65.0323 82.5057 71.739 87.992 79.6352 90.9932C87.5313 93.9945 96.189 94.3479 104.304 92.0004C112.418 89.6528 119.55 84.7314 124.624 77.9778C129.698 71.2243 132.439 63.0045 132.435 54.5572ZM54.5183 53.7313C54.5069 54.2818 54.5069 54.8326 54.5183 55.3831V64.2734C54.5183 64.79 54.3131 65.2855 53.9478 65.6508C53.5825 66.0161 53.087 66.2213 52.5704 66.2213H46.75V42.8619H54.5261V53.7313H54.5183ZM66.2058 55.2507V53.8637C66.3882 46.6935 69.3881 39.8837 74.5557 34.9095C79.7233 29.9354 86.6426 27.1974 93.8146 27.2886C100.987 27.3798 107.834 30.2929 112.873 35.3968C117.913 40.5007 120.739 47.3846 120.739 54.5572C120.739 61.7298 117.913 68.6137 112.873 73.7176C107.834 78.8216 100.987 81.7346 93.8146 81.8258C86.6426 81.917 79.7233 79.179 74.5557 74.2049C69.3881 69.2307 66.3882 62.421 66.2058 55.2507Z" fill="#5B76FF"/>
</svg>
