<svg width="187" height="187" viewBox="0 0 187 187" fill="none" xmlns="http://www.w3.org/2000/svg">
<path d="M93.5 28.05C89.7803 28.05 86.213 29.5276 83.5828 32.1578C80.9526 34.788 79.475 38.3553 79.475 42.075C79.475 45.7946 80.9526 49.3619 83.5828 51.9921C86.213 54.6223 89.7803 56.1 93.5 56.1C97.2196 56.1 100.787 54.6223 103.417 51.9921C106.047 49.3619 107.525 45.7946 107.525 42.075C107.525 38.3553 106.047 34.788 103.417 32.1578C100.787 29.5276 97.2196 28.05 93.5 28.05ZM70.125 42.075C70.125 35.8755 72.5877 29.93 76.9713 25.5463C81.355 21.1627 87.3005 18.7 93.5 18.7C99.6994 18.7 105.645 21.1627 110.029 25.5463C114.412 29.93 116.875 35.8755 116.875 42.075C116.875 48.2744 114.412 54.2199 110.029 58.6036C105.645 62.9872 99.6994 65.45 93.5 65.45C87.3005 65.45 81.355 62.9872 76.9713 58.6036C72.5877 54.2199 70.125 48.2744 70.125 42.075ZM144.925 37.4C142.445 37.4 140.067 38.385 138.314 40.1385C136.56 41.892 135.575 44.2702 135.575 46.75C135.575 49.2297 136.56 51.6079 138.314 53.3614C140.067 55.1149 142.445 56.1 144.925 56.1C147.405 56.1 149.783 55.1149 151.536 53.3614C153.29 51.6079 154.275 49.2297 154.275 46.75C154.275 44.2702 153.29 41.892 151.536 40.1385C149.783 38.385 147.405 37.4 144.925 37.4ZM126.225 46.75C126.225 41.7904 128.195 37.034 131.702 33.5271C135.209 30.0201 139.965 28.05 144.925 28.05C149.885 28.05 154.641 30.0201 158.148 33.5271C161.655 37.034 163.625 41.7904 163.625 46.75C163.625 51.7095 161.655 56.4659 158.148 59.9729C154.641 63.4798 149.885 65.45 144.925 65.45C139.965 65.45 135.209 63.4798 131.702 59.9729C128.195 56.4659 126.225 51.7095 126.225 46.75ZM32.725 46.75C32.725 44.2702 33.71 41.892 35.4635 40.1385C37.217 38.385 39.5952 37.4 42.075 37.4C44.5547 37.4 46.9329 38.385 48.6864 40.1385C50.4399 41.892 51.425 44.2702 51.425 46.75C51.425 49.2297 50.4399 51.6079 48.6864 53.3614C46.9329 55.1149 44.5547 56.1 42.075 56.1C39.5952 56.1 37.217 55.1149 35.4635 53.3614C33.71 51.6079 32.725 49.2297 32.725 46.75ZM42.075 28.05C37.1154 28.05 32.359 30.0201 28.8521 33.5271C25.3451 37.034 23.375 41.7904 23.375 46.75C23.375 51.7095 25.3451 56.4659 28.8521 59.9729C32.359 63.4798 37.1154 65.45 42.075 65.45C47.0345 65.45 51.7909 63.4798 55.2979 59.9729C58.8048 56.4659 60.775 51.7095 60.775 46.75C60.775 41.7904 58.8048 37.034 55.2979 33.5271C51.7909 30.0201 47.0345 28.05 42.075 28.05ZM47.685 140.231C45.1533 140.358 42.6223 139.969 40.2457 139.087C37.8691 138.205 35.6966 136.85 33.8602 135.102C32.0237 133.355 30.5617 131.253 29.5629 128.923C28.564 126.593 28.0493 124.085 28.05 121.55V86.4875C28.05 85.8675 28.2962 85.273 28.7346 84.8346C29.173 84.3962 29.7675 84.15 30.3875 84.15H46.8809C47.2549 80.7185 48.4704 77.5302 50.2936 74.8H30.3875C23.936 74.8 18.7 80.036 18.7 86.4875V121.55C18.6995 125.553 19.5558 129.51 21.2114 133.154C22.8669 136.799 25.2833 140.047 28.2982 142.68C31.3132 145.313 34.8567 147.27 38.6909 148.42C42.525 149.57 46.5609 149.887 50.5274 149.348C49.2689 146.415 48.3164 143.36 47.685 140.231ZM136.473 149.348C140.439 149.887 144.475 149.57 148.309 148.42C152.143 147.27 155.687 145.313 158.702 142.68C161.717 140.047 164.133 136.799 165.789 133.154C167.444 129.51 168.3 125.553 168.3 121.55V86.4875C168.3 80.036 163.064 74.8 156.612 74.8H136.706C138.539 77.5302 139.745 80.7185 140.119 84.15H156.612C157.232 84.15 157.827 84.3962 158.265 84.8346C158.704 85.273 158.95 85.8675 158.95 86.4875V121.55C158.951 124.085 158.436 126.593 157.437 128.923C156.438 131.253 154.976 133.355 153.14 135.102C151.303 136.85 149.131 138.205 146.754 139.087C144.378 139.969 141.847 140.358 139.315 140.231C138.683 143.36 137.731 146.415 136.473 149.348ZM67.7875 74.8C61.336 74.8 56.1 80.036 56.1 86.4875V130.9C56.1 140.819 60.0403 150.332 67.0542 157.346C74.068 164.36 83.5809 168.3 93.5 168.3C103.419 168.3 112.932 164.36 119.946 157.346C126.96 150.332 130.9 140.819 130.9 130.9V86.4875C130.9 80.036 125.664 74.8 119.212 74.8H67.7875ZM65.45 86.4875C65.45 85.8675 65.6962 85.273 66.1346 84.8346C66.573 84.3962 67.1675 84.15 67.7875 84.15H119.212C119.832 84.15 120.427 84.3962 120.865 84.8346C121.304 85.273 121.55 85.8675 121.55 86.4875V130.9C121.55 138.339 118.595 145.474 113.334 150.734C108.074 155.995 100.939 158.95 93.5 158.95C86.0606 158.95 78.926 155.995 73.6656 150.734C68.4052 145.474 65.45 138.339 65.45 130.9V86.4875Z" fill="#5B76FF"/>
</svg>
