<svg width="186" height="186" viewBox="0 0 186 186" fill="none" xmlns="http://www.w3.org/2000/svg">
<path d="M122.062 11.625C113.894 11.6231 105.838 13.5348 98.5407 17.2068C91.2436 20.8788 84.9082 26.209 80.042 32.7704C75.1758 39.3317 71.9142 46.9417 70.5186 54.9905C69.1229 63.0393 69.6321 71.3032 72.0052 79.1198L11.625 139.5V174.375H46.5L106.88 113.995C114.076 116.179 121.657 116.786 129.108 115.775C136.56 114.764 143.705 112.158 150.058 108.136C156.412 104.114 161.823 98.7688 165.924 92.4659C170.024 86.1629 172.718 79.05 173.821 71.6119C174.924 64.1738 174.411 56.5853 172.316 49.3635C170.221 42.1417 166.594 35.4564 161.682 29.7633C156.769 24.0701 150.688 19.5028 143.85 16.3727C137.013 13.2426 129.582 11.6233 122.062 11.625V11.625ZM122.062 104.625C118.061 104.623 114.081 104.031 110.251 102.87L103.585 100.847L98.6614 105.77L80.1718 124.26L72.1564 116.25L63.9375 124.469L71.9529 132.484L62.7343 141.703L54.7189 133.688L46.5 141.906L54.5154 149.922L41.6872 162.75H23.25V144.313L80.2241 87.3386L85.1531 82.4154L83.1304 75.7485C80.646 67.5586 80.8074 58.7939 83.5916 50.7011C86.3758 42.6082 91.641 35.5994 98.6383 30.6716C105.636 25.7437 114.009 23.1478 122.566 23.2531C131.124 23.3584 139.431 26.1595 146.305 31.258C153.179 36.3565 158.27 43.4927 160.854 51.6516C163.438 59.8105 163.384 68.5766 160.699 76.7028C158.014 84.8291 152.835 91.9017 145.898 96.9147C138.962 101.928 130.621 104.626 122.062 104.625V104.625Z" fill="#5B76FF"/>
<path d="M127.875 69.75C134.295 69.75 139.5 64.5453 139.5 58.125C139.5 51.7047 134.295 46.5 127.875 46.5C121.455 46.5 116.25 51.7047 116.25 58.125C116.25 64.5453 121.455 69.75 127.875 69.75Z" fill="#5B76FF"/>
</svg>
