<svg width="186" height="186" viewBox="0 0 186 186" fill="none" xmlns="http://www.w3.org/2000/svg">
<path d="M165.333 31H20.6666C17.9261 31 15.2978 32.0887 13.3599 34.0266C11.422 35.9644 10.3333 38.5928 10.3333 41.3333V144.667C10.3333 147.407 11.422 150.036 13.3599 151.973C15.2978 153.911 17.9261 155 20.6666 155H165.333C168.074 155 170.702 153.911 172.64 151.973C174.578 150.036 175.667 147.407 175.667 144.667V41.3333C175.667 38.5928 174.578 35.9644 172.64 34.0266C170.702 32.0887 168.074 31 165.333 31V31ZM157.377 144.667H29.2433L65.41 107.26L57.97 100.078L20.6666 138.673V49.1867L84.8883 113.098C86.8244 115.023 89.4434 116.103 92.1733 116.103C94.9032 116.103 97.5222 115.023 99.4583 113.098L165.333 47.585V138.002L127.307 99.975L120.022 107.26L157.377 144.667ZM27.435 41.3333H156.963L92.1733 105.762L27.435 41.3333Z" fill="#5B76FF"/>
</svg>
