<svg width="18" height="18" viewBox="0 0 18 18" fill="none" xmlns="http://www.w3.org/2000/svg">
<path d="M17.2295 0.687492C17.0643 0.580259 16.8796 0.506629 16.6859 0.470807C16.4922 0.434985 16.2934 0.437674 16.1007 0.47872C15.9081 0.519766 15.7254 0.598364 15.5631 0.710026C15.4009 0.821687 15.2622 0.964224 15.155 1.12949L6.75005 14.085L2.65105 10.295C2.50643 10.1613 2.33689 10.0574 2.15211 9.98915C1.96733 9.92096 1.77092 9.88982 1.57411 9.89753C1.17662 9.9131 0.801604 10.0859 0.531547 10.378C0.261491 10.6701 0.118519 11.0575 0.134085 11.4549C0.14965 11.8524 0.322478 12.2274 0.614547 12.4975L5.99655 17.4735C5.99655 17.4735 6.15105 17.6065 6.22255 17.653C6.38779 17.7603 6.57256 17.834 6.7663 17.8699C6.96003 17.9057 7.15894 17.9031 7.35165 17.862C7.54435 17.821 7.72708 17.7423 7.88938 17.6306C8.05168 17.5189 8.19038 17.3763 8.29755 17.211L17.6715 2.76199C17.7788 2.59677 17.8524 2.41204 17.8882 2.21835C17.9241 2.02467 17.9214 1.82582 17.8803 1.63317C17.8393 1.44053 17.7607 1.25785 17.649 1.09559C17.5374 0.933329 17.3948 0.794655 17.2295 0.687492Z" fill="white"/>
</svg>
