<svg width="170" height="44" viewBox="0 0 170 44" fill="none" xmlns="http://www.w3.org/2000/svg">
<rect width="44" height="41" rx="8" fill="white"/>
<path d="M15.0803 15.3636V27H11.9666V17.8636H8.0348V27H4.92116V15.3636H15.0803ZM27.9652 19.7273H24.7607C24.7379 19.4621 24.6773 19.2216 24.5788 19.0057C24.4841 18.7898 24.3516 18.6042 24.1811 18.4489C24.0144 18.2898 23.8118 18.1686 23.5732 18.0852C23.3345 17.9981 23.0637 17.9545 22.7607 17.9545C22.2304 17.9545 21.7815 18.0833 21.4141 18.3409C21.0504 18.5985 20.7739 18.9678 20.5845 19.4489C20.3989 19.9299 20.3061 20.5076 20.3061 21.1818C20.3061 21.8939 20.4008 22.4905 20.5902 22.9716C20.7834 23.4489 21.0618 23.8087 21.4254 24.0511C21.7891 24.2898 22.2266 24.4091 22.7379 24.4091C23.0296 24.4091 23.291 24.3731 23.522 24.3011C23.7531 24.2254 23.9538 24.1174 24.1243 23.9773C24.2947 23.8371 24.433 23.6686 24.5391 23.4716C24.6489 23.2708 24.7228 23.0455 24.7607 22.7955L27.9652 22.8182C27.9273 23.3106 27.7891 23.8125 27.5504 24.3239C27.3118 24.8314 26.9728 25.3011 26.5334 25.733C26.0978 26.161 25.558 26.5057 24.9141 26.767C24.2701 27.0284 23.522 27.1591 22.6697 27.1591C21.6016 27.1591 20.6432 26.9299 19.7947 26.4716C18.95 26.0133 18.2815 25.339 17.7891 24.4489C17.3004 23.5587 17.0561 22.4697 17.0561 21.1818C17.0561 19.8864 17.3061 18.7955 17.8061 17.9091C18.3061 17.0189 18.9804 16.3466 19.8288 15.892C20.6773 15.4337 21.6243 15.2045 22.6697 15.2045C23.4046 15.2045 24.0807 15.3049 24.6982 15.5057C25.3156 15.7064 25.8572 16 26.3232 16.3864C26.7891 16.7689 27.1641 17.2405 27.4482 17.8011C27.7322 18.3617 27.9046 19.0038 27.9652 19.7273ZM40.0803 15.3636V27H36.9666V17.8636H33.0348V27H29.9212V15.3636H40.0803Z" fill="#343434"/>
<path d="M63.9631 0.454545V15H60.4972V3.26705H55.0994V15H51.6335V0.454545H63.9631ZM66.6868 19.0909V4.09091H70.1243V5.95881H70.2308C70.3729 5.62737 70.5741 5.30777 70.8345 5C71.0997 4.69223 71.4358 4.44129 71.843 4.24716C72.255 4.0483 72.7474 3.94886 73.3203 3.94886C74.0779 3.94886 74.7857 4.14773 75.4439 4.54545C76.1068 4.94318 76.6418 5.55634 77.049 6.38494C77.4562 7.21354 77.6598 8.26941 77.6598 9.55256C77.6598 10.7884 77.4633 11.8229 77.0703 12.6562C76.6821 13.4896 76.1565 14.1146 75.4936 14.5312C74.8355 14.9479 74.1039 15.1562 73.299 15.1562C72.7498 15.1562 72.2739 15.0663 71.8714 14.8864C71.469 14.7064 71.1304 14.4697 70.8558 14.1761C70.5859 13.8826 70.3776 13.5677 70.2308 13.2315H70.1598V19.0909H66.6868ZM70.0888 9.54545C70.0888 10.1326 70.1669 10.6439 70.3232 11.0795C70.4841 11.5152 70.7138 11.8537 71.0121 12.0952C71.3151 12.3319 71.6773 12.4503 72.0987 12.4503C72.5249 12.4503 72.8871 12.3319 73.1854 12.0952C73.4837 11.8537 73.7086 11.5152 73.8601 11.0795C74.0163 10.6439 74.0945 10.1326 74.0945 9.54545C74.0945 8.95833 74.0163 8.44934 73.8601 8.01847C73.7086 7.58759 73.4837 7.25379 73.1854 7.01705C72.8918 6.7803 72.5296 6.66193 72.0987 6.66193C71.6726 6.66193 71.3104 6.77794 71.0121 7.00994C70.7138 7.24195 70.4841 7.57339 70.3232 8.00426C70.1669 8.43513 70.0888 8.94886 70.0888 9.54545ZM84.5721 15.206C83.4263 15.206 82.4414 14.9716 81.6175 14.5028C80.7984 14.0294 80.1663 13.3712 79.7212 12.5284C79.2809 11.6809 79.0607 10.6984 79.0607 9.58097C79.0607 8.45881 79.2809 7.47633 79.7212 6.63352C80.1663 5.78598 80.7984 5.12784 81.6175 4.65909C82.4414 4.18561 83.4263 3.94886 84.5721 3.94886C85.7179 3.94886 86.7004 4.18561 87.5195 4.65909C88.3434 5.12784 88.9755 5.78598 89.4158 6.63352C89.8609 7.47633 90.0835 8.45881 90.0835 9.58097C90.0835 10.6984 89.8609 11.6809 89.4158 12.5284C88.9755 13.3712 88.3434 14.0294 87.5195 14.5028C86.7004 14.9716 85.7179 15.206 84.5721 15.206ZM84.5934 12.5852C85.0101 12.5852 85.3628 12.4574 85.6516 12.2017C85.9405 11.946 86.1606 11.5909 86.3121 11.1364C86.4684 10.6818 86.5465 10.1562 86.5465 9.55966C86.5465 8.9536 86.4684 8.4233 86.3121 7.96875C86.1606 7.5142 85.9405 7.15909 85.6516 6.90341C85.3628 6.64773 85.0101 6.51989 84.5934 6.51989C84.1625 6.51989 83.7979 6.64773 83.4996 6.90341C83.2061 7.15909 82.9812 7.5142 82.8249 7.96875C82.6734 8.4233 82.5977 8.9536 82.5977 9.55966C82.5977 10.1562 82.6734 10.6818 82.8249 11.1364C82.9812 11.5909 83.2061 11.946 83.4996 12.2017C83.7979 12.4574 84.1625 12.5852 84.5934 12.5852ZM98.4677 11.2926L101.138 4.09091H103.681L99.5827 15H97.3526L93.3612 4.09091H95.8967L98.4677 11.2926ZM95.1509 4.09091V15H91.8626V4.09091H95.1509ZM101.983 15V4.09091H105.229V15H101.983ZM120.534 5.72443H116.983C116.936 5.35985 116.839 5.03078 116.692 4.73722C116.545 4.44366 116.351 4.19271 116.11 3.98438C115.868 3.77604 115.582 3.61742 115.25 3.50852C114.924 3.39489 114.561 3.33807 114.164 3.33807C113.458 3.33807 112.85 3.51089 112.338 3.85653C111.832 4.20218 111.441 4.7017 111.167 5.35511C110.897 6.00852 110.762 6.79924 110.762 7.72727C110.762 8.69318 110.899 9.50284 111.174 10.1562C111.453 10.8049 111.844 11.295 112.346 11.6264C112.852 11.9531 113.451 12.1165 114.142 12.1165C114.531 12.1165 114.883 12.0668 115.201 11.9673C115.523 11.8679 115.804 11.7235 116.046 11.5341C116.292 11.34 116.493 11.1056 116.65 10.831C116.81 10.5516 116.922 10.2367 116.983 9.88636L120.534 9.90767C120.473 10.5516 120.286 11.1861 119.973 11.8111C119.666 12.4361 119.242 13.0066 118.702 13.5227C118.162 14.0341 117.504 14.4413 116.728 14.7443C115.956 15.0473 115.07 15.1989 114.071 15.1989C112.755 15.1989 111.576 14.91 110.534 14.3324C109.498 13.75 108.678 12.9025 108.077 11.7898C107.476 10.6771 107.175 9.32292 107.175 7.72727C107.175 6.12689 107.48 4.77036 108.091 3.65767C108.702 2.54498 109.528 1.69981 110.57 1.12216C111.612 0.544507 112.779 0.255681 114.071 0.255681C114.952 0.255681 115.766 0.378788 116.515 0.625C117.263 0.866477 117.921 1.22159 118.489 1.69034C119.057 2.15436 119.519 2.72491 119.874 3.40199C120.229 4.07907 120.449 4.85322 120.534 5.72443ZM130.238 8.18892V10.8381H124.641V8.18892H130.238ZM125.835 4.09091V15H122.546V4.09091H125.835ZM132.333 4.09091V15H129.066V4.09091H132.333ZM137.516 15.1847C136.82 15.1847 136.202 15.0687 135.662 14.8366C135.127 14.5999 134.703 14.2448 134.391 13.7713C134.083 13.2931 133.929 12.6941 133.929 11.9744C133.929 11.3684 134.036 10.857 134.249 10.4403C134.462 10.0237 134.756 9.68513 135.13 9.42472C135.504 9.1643 135.935 8.9678 136.422 8.83523C136.91 8.69792 137.431 8.60559 137.985 8.55824C138.605 8.50142 139.105 8.44223 139.483 8.38068C139.862 8.31439 140.137 8.22206 140.307 8.10369C140.482 7.98059 140.57 7.80776 140.57 7.58523V7.54972C140.57 7.18513 140.444 6.90341 140.194 6.70455C139.943 6.50568 139.604 6.40625 139.178 6.40625C138.719 6.40625 138.349 6.50568 138.07 6.70455C137.791 6.90341 137.613 7.17803 137.537 7.52841L134.334 7.41477C134.429 6.75189 134.673 6.16004 135.066 5.6392C135.463 5.11364 136.008 4.7017 136.699 4.40341C137.395 4.10038 138.231 3.94886 139.206 3.94886C139.902 3.94886 140.544 4.03172 141.131 4.19744C141.718 4.35843 142.23 4.59517 142.665 4.90767C143.101 5.21544 143.437 5.59422 143.674 6.04403C143.915 6.49384 144.036 7.00758 144.036 7.58523V15H140.769V13.4801H140.684C140.489 13.8494 140.241 14.1619 139.938 14.4176C139.64 14.6733 139.287 14.8651 138.88 14.9929C138.477 15.1207 138.023 15.1847 137.516 15.1847ZM138.588 12.9119C138.962 12.9119 139.299 12.8362 139.597 12.6847C139.9 12.5331 140.141 12.3248 140.321 12.0597C140.501 11.7898 140.591 11.4773 140.591 11.1222V10.0852C140.492 10.1373 140.371 10.1847 140.229 10.2273C140.092 10.2699 139.94 10.3101 139.775 10.348C139.609 10.3859 139.438 10.419 139.263 10.4474C139.088 10.4759 138.92 10.5019 138.759 10.5256C138.432 10.5777 138.153 10.6581 137.921 10.767C137.694 10.8759 137.518 11.018 137.395 11.1932C137.277 11.3636 137.218 11.5672 137.218 11.804C137.218 12.1638 137.346 12.4384 137.601 12.6278C137.862 12.8172 138.191 12.9119 138.588 12.9119ZM155.556 0.113636L156.493 2.40767C156.195 2.63968 155.868 2.81487 155.513 2.93324C155.163 3.05161 154.734 3.1321 154.228 3.17472C153.721 3.21733 153.082 3.241 152.31 3.24574C151.439 3.25047 150.733 3.37121 150.194 3.60795C149.654 3.83996 149.244 4.22112 148.965 4.75142C148.69 5.27699 148.508 5.97775 148.418 6.85369H148.51C148.823 6.19555 149.268 5.67708 149.846 5.2983C150.423 4.91951 151.169 4.73011 152.083 4.73011C153.034 4.73011 153.863 4.93608 154.569 5.34801C155.274 5.75521 155.819 6.33759 156.202 7.09517C156.586 7.84801 156.777 8.7429 156.777 9.77983C156.777 10.8783 156.557 11.8348 156.117 12.6491C155.676 13.4635 155.047 14.0933 154.228 14.5384C153.408 14.9834 152.428 15.206 151.287 15.206C150.146 15.206 149.164 14.974 148.34 14.5099C147.521 14.0459 146.889 13.3641 146.444 12.4645C146.003 11.5601 145.783 10.4498 145.783 9.13352V8.33807C145.783 5.6392 146.328 3.65294 147.417 2.37926C148.506 1.10559 150.096 0.464015 152.189 0.454545C152.715 0.44981 153.191 0.44981 153.617 0.454545C154.048 0.454545 154.424 0.433238 154.746 0.390625C155.068 0.343276 155.338 0.250946 155.556 0.113636ZM151.309 12.5852C151.706 12.5852 152.05 12.4787 152.338 12.2656C152.627 12.0526 152.85 11.7472 153.006 11.3494C153.162 10.9517 153.24 10.4735 153.24 9.91477C153.24 9.35606 153.16 8.88021 152.999 8.48722C152.843 8.09422 152.62 7.79593 152.331 7.59233C152.042 7.384 151.699 7.27983 151.301 7.27983C150.998 7.27983 150.724 7.33902 150.478 7.45739C150.231 7.57102 150.023 7.74148 149.853 7.96875C149.682 8.19129 149.552 8.46591 149.462 8.79261C149.372 9.11932 149.327 9.49337 149.327 9.91477C149.327 10.7481 149.502 11.4015 149.853 11.875C150.203 12.3485 150.688 12.5852 151.309 12.5852ZM63.9631 24.4545V39H60.4972V27.267H55.0994V39H51.6335V24.4545H63.9631ZM71.7791 39.206C70.6333 39.206 69.6484 38.9716 68.8246 38.5028C68.0054 38.0294 67.3733 37.3712 66.9283 36.5284C66.4879 35.6809 66.2678 34.6984 66.2678 33.581C66.2678 32.4588 66.4879 31.4763 66.9283 30.6335C67.3733 29.786 68.0054 29.1278 68.8246 28.6591C69.6484 28.1856 70.6333 27.9489 71.7791 27.9489C72.925 27.9489 73.9074 28.1856 74.7266 28.6591C75.5504 29.1278 76.1825 29.786 76.6229 30.6335C77.0679 31.4763 77.2905 32.4588 77.2905 33.581C77.2905 34.6984 77.0679 35.6809 76.6229 36.5284C76.1825 37.3712 75.5504 38.0294 74.7266 38.5028C73.9074 38.9716 72.925 39.206 71.7791 39.206ZM71.8004 36.5852C72.2171 36.5852 72.5698 36.4574 72.8587 36.2017C73.1475 35.946 73.3677 35.5909 73.5192 35.1364C73.6754 34.6818 73.7536 34.1562 73.7536 33.5597C73.7536 32.9536 73.6754 32.4233 73.5192 31.9688C73.3677 31.5142 73.1475 31.1591 72.8587 30.9034C72.5698 30.6477 72.2171 30.5199 71.8004 30.5199C71.3696 30.5199 71.005 30.6477 70.7067 30.9034C70.4131 31.1591 70.1882 31.5142 70.032 31.9688C69.8804 32.4233 69.8047 32.9536 69.8047 33.5597C69.8047 34.1562 69.8804 34.6818 70.032 35.1364C70.1882 35.5909 70.4131 35.946 70.7067 36.2017C71.005 36.4574 71.3696 36.5852 71.8004 36.5852ZM78.5369 39L78.5156 36.3224H78.8636C79.1004 36.3224 79.3063 36.2609 79.4815 36.1378C79.6567 36.0147 79.8035 35.8182 79.9219 35.5483C80.0402 35.2737 80.1349 34.9209 80.206 34.4901C80.277 34.0592 80.322 33.536 80.3409 32.9205L80.5185 28.0909H89.1548V39H85.8665V30.7472H83.608L83.4375 33.8864C83.3949 34.8097 83.2741 35.598 83.0753 36.2514C82.8812 36.9001 82.616 37.4257 82.2798 37.8281C81.9484 38.2306 81.5554 38.5265 81.1009 38.7159C80.6463 38.9053 80.1326 39 79.5597 39H78.5369ZM94.565 34.5043L98.0522 28.0909H101.39V39H98.1019V32.5653L94.6218 39H91.2766V28.0909H94.565V34.5043ZM110.206 35.2926L112.876 28.0909H115.419L111.321 39H109.091L105.099 28.0909H107.635L110.206 35.2926ZM106.889 28.0909V39H103.601V28.0909H106.889ZM113.722 39V28.0909H116.967V39H113.722ZM124.169 39.206C123.028 39.206 122.043 38.9811 121.214 38.5312C120.391 38.0767 119.756 37.4304 119.311 36.5923C118.871 35.7495 118.651 34.7481 118.651 33.5881C118.651 32.4612 118.873 31.4763 119.318 30.6335C119.763 29.786 120.391 29.1278 121.2 28.6591C122.01 28.1856 122.964 27.9489 124.062 27.9489C124.839 27.9489 125.549 28.0696 126.193 28.3111C126.837 28.5526 127.393 28.91 127.862 29.3835C128.331 29.857 128.696 30.4418 128.956 31.1378C129.216 31.8291 129.347 32.6222 129.347 33.517V34.3835H119.865V32.3665H126.115C126.11 31.9972 126.023 31.6681 125.852 31.3793C125.682 31.0904 125.447 30.8655 125.149 30.7045C124.856 30.5388 124.517 30.456 124.134 30.456C123.745 30.456 123.397 30.5436 123.089 30.7188C122.782 30.8892 122.538 31.1236 122.358 31.4219C122.178 31.7154 122.083 32.0492 122.074 32.4233V34.4759C122.074 34.9209 122.161 35.3116 122.337 35.6477C122.512 35.9792 122.76 36.2372 123.082 36.4219C123.404 36.6065 123.788 36.6989 124.233 36.6989C124.541 36.6989 124.82 36.6562 125.071 36.571C125.322 36.4858 125.537 36.3603 125.717 36.1946C125.897 36.0289 126.032 35.8253 126.122 35.5838L129.311 35.6761C129.179 36.3911 128.887 37.0137 128.438 37.544C127.992 38.0696 127.408 38.4792 126.683 38.7727C125.959 39.0616 125.121 39.206 124.169 39.206ZM131.12 43.0909V28.0909H134.558V29.9588H134.664C134.806 29.6274 135.008 29.3078 135.268 29C135.533 28.6922 135.869 28.4413 136.277 28.2472C136.689 28.0483 137.181 27.9489 137.754 27.9489C138.511 27.9489 139.219 28.1477 139.877 28.5455C140.54 28.9432 141.075 29.5563 141.483 30.3849C141.89 31.2135 142.093 32.2694 142.093 33.5526C142.093 34.7884 141.897 35.8229 141.504 36.6562C141.116 37.4896 140.59 38.1146 139.927 38.5312C139.269 38.9479 138.538 39.1562 137.733 39.1562C137.183 39.1562 136.708 39.0663 136.305 38.8864C135.903 38.7064 135.564 38.4697 135.289 38.1761C135.02 37.8826 134.811 37.5677 134.664 37.2315H134.593V43.0909H131.12ZM134.522 33.5455C134.522 34.1326 134.6 34.6439 134.757 35.0795C134.918 35.5152 135.147 35.8537 135.446 36.0952C135.749 36.3319 136.111 36.4503 136.532 36.4503C136.958 36.4503 137.321 36.3319 137.619 36.0952C137.917 35.8537 138.142 35.5152 138.294 35.0795C138.45 34.6439 138.528 34.1326 138.528 33.5455C138.528 32.9583 138.45 32.4493 138.294 32.0185C138.142 31.5876 137.917 31.2538 137.619 31.017C137.325 30.7803 136.963 30.6619 136.532 30.6619C136.106 30.6619 135.744 30.7779 135.446 31.0099C135.147 31.242 134.918 31.5734 134.757 32.0043C134.6 32.4351 134.522 32.9489 134.522 33.5455Z" fill="white"/>
</svg>
