<svg width="33" height="33" viewBox="0 0 33 33" fill="none" xmlns="http://www.w3.org/2000/svg">
<path d="M5.5 17.875H13.75C14.5063 17.875 15.125 17.2563 15.125 16.5V5.5C15.125 4.74375 14.5063 4.125 13.75 4.125H5.5C4.74375 4.125 4.125 4.74375 4.125 5.5V16.5C4.125 17.2563 4.74375 17.875 5.5 17.875ZM5.5 28.875H13.75C14.5063 28.875 15.125 28.2563 15.125 27.5V22C15.125 21.2437 14.5063 20.625 13.75 20.625H5.5C4.74375 20.625 4.125 21.2437 4.125 22V27.5C4.125 28.2563 4.74375 28.875 5.5 28.875ZM19.25 28.875H27.5C28.2563 28.875 28.875 28.2563 28.875 27.5V16.5C28.875 15.7437 28.2563 15.125 27.5 15.125H19.25C18.4937 15.125 17.875 15.7437 17.875 16.5V27.5C17.875 28.2563 18.4937 28.875 19.25 28.875ZM17.875 5.5V11C17.875 11.7562 18.4937 12.375 19.25 12.375H27.5C28.2563 12.375 28.875 11.7562 28.875 11V5.5C28.875 4.74375 28.2563 4.125 27.5 4.125H19.25C18.4937 4.125 17.875 4.74375 17.875 5.5Z" fill="white"/>
</svg>
