<svg width="33" height="33" viewBox="0 0 33 33" fill="none" xmlns="http://www.w3.org/2000/svg">
<path d="M4.125 16.5H16.5V18.5625H4.125V16.5ZM2.0625 11.3438H12.375V13.4062H2.0625V11.3438Z" fill="white"/>
<path d="M30.8538 17.1249L27.76 9.90619C27.6807 9.72064 27.5485 9.56251 27.38 9.45141C27.2115 9.34031 27.0141 9.28114 26.8123 9.28125H23.7186V7.21875C23.7186 6.94525 23.6099 6.68294 23.4165 6.48955C23.2231 6.29615 22.9608 6.1875 22.6873 6.1875H6.18733V8.25H21.6561V21.1984C21.1862 21.4712 20.7749 21.8344 20.4461 22.267C20.1172 22.6996 19.8772 23.193 19.74 23.7188H13.2596C13.0086 22.7466 12.4117 21.8994 11.5808 21.3359C10.7498 20.7725 9.74185 20.5314 8.74586 20.6579C7.74986 20.7844 6.8342 21.2698 6.17049 22.0231C5.50679 22.7765 5.14062 23.746 5.14062 24.75C5.14062 25.754 5.50679 26.7235 6.17049 27.4769C6.8342 28.2302 7.74986 28.7156 8.74586 28.8421C9.74185 28.9686 10.7498 28.7275 11.5808 28.1641C12.4117 27.6006 13.0086 26.7534 13.2596 25.7812H19.74C19.9643 26.6663 20.4774 27.4513 21.198 28.012C21.9186 28.5727 22.8055 28.8772 23.7186 28.8772C24.6316 28.8772 25.5186 28.5727 26.2392 28.012C26.9598 27.4513 27.4728 26.6663 27.6971 25.7812H29.9061C30.1796 25.7812 30.4419 25.6726 30.6353 25.4792C30.8287 25.2858 30.9373 25.0235 30.9373 24.75V17.5312C30.9374 17.3915 30.909 17.2533 30.8538 17.1249ZM9.28108 26.8125C8.87315 26.8125 8.47439 26.6915 8.13521 26.4649C7.79604 26.2383 7.53168 25.9162 7.37557 25.5393C7.21947 25.1624 7.17862 24.7477 7.25821 24.3476C7.33779 23.9475 7.53422 23.58 7.82267 23.2916C8.11111 23.0031 8.47862 22.8067 8.8787 22.7271C9.27879 22.6475 9.69349 22.6884 10.0704 22.8445C10.4472 23.0006 10.7694 23.265 10.996 23.6041C11.2226 23.9433 11.3436 24.3421 11.3436 24.75C11.343 25.2968 11.1256 25.8211 10.7389 26.2078C10.3522 26.5945 9.82792 26.812 9.28108 26.8125ZM23.7186 11.3438H26.1317L28.3427 16.5H23.7186V11.3438ZM23.7186 26.8125C23.3107 26.8125 22.9119 26.6915 22.5727 26.4649C22.2335 26.2383 21.9692 25.9162 21.8131 25.5393C21.657 25.1624 21.6161 24.7477 21.6957 24.3476C21.7753 23.9475 21.9717 23.58 22.2602 23.2916C22.5486 23.0031 22.9161 22.8067 23.3162 22.7271C23.7163 22.6475 24.131 22.6884 24.5079 22.8445C24.8847 23.0006 25.2069 23.265 25.4335 23.6041C25.6601 23.9433 25.7811 24.3421 25.7811 24.75C25.7805 25.2968 25.5631 25.8211 25.1764 26.2078C24.7897 26.5945 24.2654 26.812 23.7186 26.8125ZM28.8748 23.7188H27.6971C27.47 22.8354 26.9561 22.0524 26.2361 21.4925C25.5161 20.9327 24.6306 20.6275 23.7186 20.625V18.5625H28.8748V23.7188Z" fill="white"/>
</svg>
