<svg width="13" height="16" viewBox="0 0 13 16" fill="none" xmlns="http://www.w3.org/2000/svg">
<path d="M10.5116 7.08235H6.76632V2.58989C6.76632 2.39131 6.70055 2.20086 6.58349 2.06044C6.46643 1.92003 6.30766 1.84114 6.14211 1.84114C5.97656 1.84114 5.81779 1.92003 5.70073 2.06044C5.58367 2.20086 5.5179 2.39131 5.5179 2.58989V7.08235H1.77265C1.6071 7.08235 1.44833 7.16124 1.33126 7.30166C1.2142 7.44207 1.14844 7.63252 1.14844 7.8311C1.14844 8.02968 1.2142 8.22012 1.33126 8.36054C1.44833 8.50096 1.6071 8.57984 1.77265 8.57984H5.5179V13.0723C5.5179 13.2709 5.58367 13.4613 5.70073 13.6018C5.81779 13.7422 5.97656 13.8211 6.14211 13.8211C6.30766 13.8211 6.46643 13.7422 6.58349 13.6018C6.70055 13.4613 6.76632 13.2709 6.76632 13.0723V8.57984H10.5116C10.6771 8.57984 10.8359 8.50096 10.953 8.36054C11.07 8.22012 11.1358 8.02968 11.1358 7.8311C11.1358 7.63252 11.07 7.44207 10.953 7.30166C10.8359 7.16124 10.6771 7.08235 10.5116 7.08235Z" fill="white"/>
</svg>
